<?xml version="1.0" encoding="UTF-8"?>
<!DOCTYPE svg PUBLIC "-//W3C//DTD SVG 1.1//EN" "http://www.w3.org/Graphics/SVG/1.1/DTD/svg11.dtd">
<svg xmlns="http://www.w3.org/2000/svg" version="1.1" width="70px" height="53px" style="shape-rendering:geometricPrecision; text-rendering:geometricPrecision; image-rendering:optimizeQuality; fill-rule:evenodd; clip-rule:evenodd" xmlns:xlink="http://www.w3.org/1999/xlink">
<g><path style="opacity:0.922" fill="#f9ad1c" d="M 9.5,1.5 C 12.5837,5.43236 15.7504,5.43236 19,1.5C 20.4447,4.05509 21.6114,6.72176 22.5,9.5C 25.0903,10.2524 27.5903,11.2524 30,12.5C 34.2248,10.3117 38.5581,8.31168 43,6.5C 47.2912,8.3968 51.4578,10.3968 55.5,12.5C 55.5886,17.0877 54.9219,21.2544 53.5,25C 54.2058,27.5831 55.5391,29.7497 57.5,31.5C 56.6872,32.8139 55.6872,33.9805 54.5,35C 56.8153,37.8305 59.1487,40.6638 61.5,43.5C 60.1349,44.941 58.6349,46.2744 57,47.5C 56.5172,48.448 56.3505,49.448 56.5,50.5C 52.1667,49.8333 47.8333,49.1667 43.5,48.5C 43.1128,44.0458 41.1128,43.5458 37.5,47C 39.9316,48.0875 39.5983,48.5875 36.5,48.5C 36.5,47.5 36.5,46.5 36.5,45.5C 31.4512,44.1977 27.4512,41.3643 24.5,37C 24.8333,36.6667 25.1667,36.3333 25.5,36C 22.3847,35.9701 19.8847,34.8035 18,32.5C 19.0188,29.1166 17.6854,26.7832 14,25.5C 11.072,22.9258 10.9054,20.2591 13.5,17.5C 8.93354,12.5603 7.60021,7.227 9.5,1.5 Z"/></g>
</svg>
