<?xml version="1.0" encoding="UTF-8"?>
<!DOCTYPE svg PUBLIC "-//W3C//DTD SVG 1.1//EN" "http://www.w3.org/Graphics/SVG/1.1/DTD/svg11.dtd">
<svg xmlns="http://www.w3.org/2000/svg" version="1.1" width="70px" height="41px" style="shape-rendering:geometricPrecision; text-rendering:geometricPrecision; image-rendering:optimizeQuality; fill-rule:evenodd; clip-rule:evenodd" xmlns:xlink="http://www.w3.org/1999/xlink">
<g><path style="opacity:0.625" fill="#fbaf1b" d="M 32.5,10.5 C 31.0695,10.5792 29.7362,10.2458 28.5,9.5C 27.0626,12.0443 25.5626,12.0443 24,9.5C 23.8595,11.2555 24.3595,12.9222 25.5,14.5C 23.4148,15.5414 21.7481,17.0414 20.5,19C 21.3279,19.9147 22.3279,20.5814 23.5,21C 22.5,21.3333 21.5,21.6667 20.5,22C 23.8367,22.6646 26.5033,24.3313 28.5,27C 27.0487,29.9533 25.3821,32.7867 23.5,35.5C 24.9108,37.0175 24.7441,38.3508 23,39.5C 20.231,37.1616 19.731,34.3283 21.5,31C 20.2827,28.632 19.4494,26.132 19,23.5C 14.4675,21.6365 11.8008,18.3032 11,13.5C 10.3109,12.6433 9.47758,11.9767 8.5,11.5C 6.44906,13.7198 4.11573,14.3864 1.5,13.5C 2.72865,12.7189 4.06199,12.2189 5.5,12C 4.61983,10.6439 4.28649,9.14387 4.5,7.5C 7.68082,7.9984 10.3475,7.16506 12.5,5C 15.5289,4.26812 18.5289,3.43479 21.5,2.5C 23.644,3.68788 25.8107,3.68788 28,2.5C 32.6616,2.79728 33.4949,4.63061 30.5,8C 31.756,8.41691 32.4226,9.25025 32.5,10.5 Z M 21.5,6.5 C 23.0281,6.51731 23.5281,7.18398 23,8.5C 22.2828,7.9558 21.7828,7.28913 21.5,6.5 Z"/></g>
<g><path style="opacity:0.183" fill="#fbb01b" d="M 35.5,3.5 C 36.9778,3.23798 38.3112,3.57131 39.5,4.5C 38.6798,6.11118 37.3464,6.77784 35.5,6.5C 35.5,5.5 35.5,4.5 35.5,3.5 Z"/></g>
<g><path style="opacity:0.67" fill="#fbb01b" d="M 65.5,7.5 C 66.984,8.47332 67.484,9.80666 67,11.5C 65.8869,10.2889 64.7202,10.2889 63.5,11.5C 61.3243,15.1678 58.6576,18.3344 55.5,21C 55.9808,24.4803 57.9808,26.1469 61.5,26C 62.2524,26.6708 62.5858,27.5041 62.5,28.5C 61.448,28.3505 60.448,28.5172 59.5,29C 60.7691,31.1385 60.7691,33.3052 59.5,35.5C 57.7801,34.066 55.7801,33.2326 53.5,33C 52.0745,31.2859 52.4078,29.9525 54.5,29C 52.9095,27.9542 51.4095,26.7875 50,25.5C 50.3229,21.3031 49.4895,20.9697 47.5,24.5C 46.7568,23.0921 45.9234,21.7588 45,20.5C 44.0857,22.6641 42.919,24.6641 41.5,26.5C 43.0396,27.5321 43.5396,28.8654 43,30.5C 41.3232,31.5159 39.6565,32.5159 38,33.5C 37.0546,33.0946 36.3879,32.428 36,31.5C 35.7105,29.0481 35.0438,26.7148 34,24.5C 33.6667,24.8333 33.3333,25.1667 33,25.5C 31.5362,24.541 30.7028,23.2077 30.5,21.5C 31.0882,17.7748 31.7549,14.1081 32.5,10.5C 33.1174,10.6107 33.6174,10.944 34,11.5C 35.6076,7.64623 38.2742,6.64623 42,8.5C 42.5396,6.86541 42.0396,5.53208 40.5,4.5C 42.396,3.53443 44.396,3.2011 46.5,3.5C 46.281,4.67504 46.6143,5.67504 47.5,6.5C 48.914,5.53452 49.7474,4.53452 50,3.5C 52.5307,5.86998 55.364,6.53665 58.5,5.5C 60.6457,6.89364 62.979,7.5603 65.5,7.5 Z"/></g>
<g><path style="opacity:0.004" fill="#fbb01b" d="M 65.5,6.5 C 66.8333,7.16667 66.8333,7.16667 65.5,6.5 Z"/></g>
<g><path style="opacity:0.021" fill="#fbb01b" d="M 62.5,28.5 C 66.3389,29.05 66.3389,30.05 62.5,31.5C 61.4376,30.5754 61.4376,29.5754 62.5,28.5 Z"/></g>
<g><path style="opacity:0.15" fill="#fbb01b" d="M 62.5,33.5 C 64.4959,32.3122 65.3293,32.9789 65,35.5C 61.5259,36.9277 61.0259,36.4277 63.5,34C 63.2716,33.6012 62.9382,33.4346 62.5,33.5 Z"/></g>
</svg>
